<svg xmlns="http://www.w3.org/2000/svg" viewBox="0 0 32 32">
  <defs>
    <linearGradient id="lockGradient" x1="0%" y1="0%" x2="100%" y2="100%">
      <stop offset="0%" style="stop-color:#14b8a6"/>
      <stop offset="100%" style="stop-color:#10b981"/>
    </linearGradient>
  </defs>
  <rect width="32" height="32" rx="6" fill="#0a0a0c"/>
  <path d="M16 8c-2.76 0-5 2.24-5 5v3h-1c-.55 0-1 .45-1 1v7c0 .55.45 1 1 1h12c.55 0 1-.45 1-1v-7c0-.55-.45-1-1-1h-1v-3c0-2.76-2.24-5-5-5zm3 8h-6v-3c0-1.66 1.34-3 3-3s3 1.34 3 3v3z" fill="url(#lockGradient)"/>
  <circle cx="16" cy="21" r="1.5" fill="#0a0a0c"/>
</svg>
